<?xml version="1.0" encoding="UTF-8"?>
<svg width="32px" height="33px" viewBox="0 0 32 33" version="1.1" xmlns="http://www.w3.org/2000/svg" xmlns:xlink="http://www.w3.org/1999/xlink">
    <title>referral-circle-gravy-48x48</title>
    <g id="Icons" stroke="none" stroke-width="1" fill="none" fill-rule="evenodd">
        <g id="functional-icons-48x48" transform="translate(-729.000000, -702.000000)">
            <g id="trash-can" transform="translate(721.000000, 669.500000)">
                <g id="referral-circle-gravy-48x48" transform="translate(0.000000, 25.000000)">
                    <g id="Group" transform="translate(9.095860, 9.012544)">
                        <circle id="Oval" stroke="#243746" stroke-width="1.5" stroke-linecap="round" stroke-linejoin="round" cx="9.3060884" cy="9.3060884" r="9.3060884"></circle>
                        <path d="M9.05465158,15.0413027 L9.05465158,13.6270992 C7.62586865,13.3938285 6.64904766,12.5190634 6.40119756,11.1194393 L8.20904536,11.1194393 C8.45689546,11.8629896 9.05465158,12.1983163 9.87109898,12.1983163 C10.7021258,12.1983163 11.2269848,11.8192514 11.2269848,11.1631776 C11.2269848,10.6237391 10.9208171,10.3467302 10.1626873,10.1717772 L8.73390439,9.82187117 C7.55297156,9.54486223 6.60530941,8.88878843 6.60530941,7.44542607 C6.60530941,6.07496081 7.58213039,5.0835604 9.05465158,4.89402797 L9.05465158,3.56730096 L10.6000699,3.56730096 L10.6000699,4.95234564 C11.8830586,5.243934 12.6411883,6.10411964 12.8890384,7.2996319 L11.1540877,7.2996319 C10.9645553,6.74561402 10.4688551,6.32281091 9.60866946,6.32281091 C8.83596032,6.32281091 8.34026012,6.71645519 8.34026012,7.31421131 C8.34026012,7.80991152 8.66100731,8.08692045 9.27334285,8.24729405 L10.7896023,8.61177949 C12.1454881,8.9471061 12.976515,9.74897408 12.976515,11.0611217 C12.976515,12.4753252 11.999694,13.3938285 10.6000699,13.6270992 L10.6000699,15.0413027 L9.05465158,15.0413027 Z" id="$" fill="#243746"></path>
                    </g>
                    <g id="Group" transform="translate(20.291963, 20.375279)">
                        <circle id="Oval" fill="#FFFFFF" cx="9.3060884" cy="9.3060884" r="9.3060884"></circle>
                        <circle id="Oval-outline" stroke="#243746" stroke-width="1.5" stroke-linecap="round" stroke-linejoin="round" cx="9.3060884" cy="9.3060884" r="9.3060884"></circle>
                        <path d="M9.05465158,15.0413027 L9.05465158,13.6270992 C7.62586865,13.3938285 6.64904766,12.5190634 6.40119756,11.1194393 L8.20904536,11.1194393 C8.45689546,11.8629896 9.05465158,12.1983163 9.87109898,12.1983163 C10.7021258,12.1983163 11.2269848,11.8192514 11.2269848,11.1631776 C11.2269848,10.6237391 10.9208171,10.3467302 10.1626873,10.1717772 L8.73390439,9.82187117 C7.55297156,9.54486223 6.60530941,8.88878843 6.60530941,7.44542607 C6.60530941,6.07496081 7.58213039,5.0835604 9.05465158,4.89402797 L9.05465158,3.56730096 L10.6000699,3.56730096 L10.6000699,4.95234564 C11.8830586,5.243934 12.6411883,6.10411964 12.8890384,7.2996319 L11.1540877,7.2996319 C10.9645553,6.74561402 10.4688551,6.32281091 9.60866946,6.32281091 C8.83596032,6.32281091 8.34026012,6.71645519 8.34026012,7.31421131 C8.34026012,7.80991152 8.66100731,8.08692045 9.27334285,8.24729405 L10.7896023,8.61177949 C12.1454881,8.9471061 12.976515,9.74897408 12.976515,11.0611217 C12.976515,12.4753252 11.999694,13.3938285 10.6000699,13.6270992 L10.6000699,15.0413027 L9.05465158,15.0413027 Z" id="$" fill="#243746"></path>
                    </g>
                </g>
            </g>
        </g>
    </g>
</svg>